<svg xmlns="http://www.w3.org/2000/svg" viewBox="0 0 100 100">
  <defs>
    <style>
      .cls-1 { fill: #cfdfdc; }
      .cls-2 { fill: #FE5823; }
    </style>
  </defs>
  <g transform="translate(0, 9)">
    <path class="cls-1" d="M73.87,59.66H32l-1.1.15,4,.57A20.42,20.42,0,0,1,52.33,77.73l.57,4,.57-4A20.42,20.42,0,0,1,70.84,60.37l4-.57Z"/>
    <path class="cls-2" d="M98.78,45.88H70L95.29,20.54l-5-5a7,7,0,0,0-9.94,0L60.05,35.9V7a7,7,0,0,0-7-7,7,7,0,0,0-7,7V36L25.44,15.42a7,7,0,0,0-10,0l-5,5L36,45.88H7a7,7,0,0,0-7,7v7H32.07L35,59.52a20.73,20.73,0,0,0,17.6-17.61l.29-2,.28,2A20.82,20.82,0,0,0,70.8,59.52l3,.42h32v-7A7,7,0,0,0,98.78,45.88Z"/>
  </g>
</svg>
